# Blender v3.0.0 OBJ File: 'Aircraft_1.blend'
# www.blender.org
mtllib Aircraft_1.mtl
o body_Cube
v -1.000000 -0.250180 0.621788
v -1.000000 0.250180 0.621788
v -1.000000 -0.250180 0.434571
v -1.000000 0.250180 0.434571
v 1.000000 -0.250180 0.621788
v 1.000000 0.250180 0.621788
v 1.000000 -0.250180 0.434571
v 1.000000 0.250180 0.434571
v -0.154579 0.038673 -1.450816
v -0.154579 -0.038673 -1.450816
v 0.154579 -0.038673 -1.450816
v 0.154579 0.038673 -1.450816
vt 0.625000 0.000000
vt 0.375000 0.250000
vt 0.375000 0.000000
vt 0.625000 0.500000
vt 0.875000 0.500000
vt 0.875000 0.500000
vt 0.375000 0.750000
vt 0.375000 0.500000
vt 0.625000 0.750000
vt 0.375000 1.000000
vt 0.125000 0.750000
vt 0.125000 0.500000
vt 0.625000 0.250000
vt 0.375000 0.500000
vt 0.375000 0.250000
vt 0.625000 0.250000
vt 0.625000 0.500000
vt 0.625000 1.000000
vt 0.875000 0.750000
vt 0.125000 0.500000
vn -1.0000 0.0000 0.0000
vn 0.0000 0.9938 -0.1115
vn 1.0000 0.0000 0.0000
vn 0.0000 0.0000 1.0000
vn 0.0000 -1.0000 0.0000
vn 0.0000 1.0000 0.0000
vn 0.0000 0.0000 -1.0000
vn -0.9125 0.0000 -0.4092
vn 0.9125 0.0000 -0.4092
vn 0.0000 -0.9938 -0.1115
usemtl aircraft_1
s off
f 2/1/1 3/2/1 1/3/1
f 8/4/2 9/5/2 4/6/2
f 8/4/3 5/7/3 7/8/3
f 6/9/4 1/10/4 5/7/4
f 7/8/5 1/11/5 3/12/5
f 4/6/6 6/9/6 8/4/6
f 9/13/7 11/14/7 10/15/7
f 4/16/8 10/15/8 3/2/8
f 7/8/9 12/17/9 8/4/9
f 3/12/10 11/14/10 7/8/10
f 2/1/1 4/16/1 3/2/1
f 8/4/2 12/17/2 9/5/2
f 8/4/3 6/9/3 5/7/3
f 6/9/4 2/18/4 1/10/4
f 7/8/5 5/7/5 1/11/5
f 4/6/6 2/19/6 6/9/6
f 9/13/7 12/17/7 11/14/7
f 4/16/8 9/13/8 10/15/8
f 7/8/9 11/14/9 12/17/9
f 3/12/10 10/20/10 11/14/10
